<svg width="83" height="38" viewBox="0 0 83 38" fill="none" xmlns="http://www.w3.org/2000/svg">
<path d="M17 36.3658C17 36.3658 30.4355 33.3931 39.1202 33.0286C48.4056 32.6388 63 36.3659 63 36.3659" stroke="#2162F0" stroke-width="2"/>
<path d="M9.24 24.288C7.544 24.288 6.088 23.928 4.872 23.208C3.656 22.472 2.72 21.456 2.064 20.16C1.408 18.848 1.08 17.336 1.08 15.624C1.08 13.912 1.408 12.4 2.064 11.088C2.72 9.776 3.656 8.752 4.872 8.016C6.088 7.28 7.544 6.912 9.24 6.912C11.256 6.912 12.904 7.416 14.184 8.424C15.48 9.416 16.288 10.816 16.608 12.624H13.224C13.016 11.712 12.568 11 11.88 10.488C11.208 9.96 10.312 9.696 9.192 9.696C7.64 9.696 6.424 10.224 5.544 11.28C4.664 12.336 4.224 13.784 4.224 15.624C4.224 17.464 4.664 18.912 5.544 19.968C6.424 21.008 7.64 21.528 9.192 21.528C10.312 21.528 11.208 21.288 11.88 20.808C12.568 20.312 13.016 19.632 13.224 18.768H16.608C16.288 20.496 15.48 21.848 14.184 22.824C12.904 23.8 11.256 24.288 9.24 24.288ZM18.5353 24V12.096H21.2713L21.5593 14.328C21.9913 13.56 22.5753 12.952 23.3113 12.504C24.0633 12.04 24.9433 11.808 25.9513 11.808V15.048H25.0873C24.4153 15.048 23.8153 15.152 23.2873 15.36C22.7593 15.568 22.3433 15.928 22.0393 16.44C21.7513 16.952 21.6073 17.664 21.6073 18.576V24H18.5353ZM32.904 24.288C31.704 24.288 30.64 24.032 29.712 23.52C28.784 23.008 28.056 22.288 27.528 21.36C27 20.432 26.736 19.36 26.736 18.144C26.736 16.912 26.992 15.816 27.504 14.856C28.032 13.896 28.752 13.152 29.664 12.624C30.592 12.08 31.68 11.808 32.928 11.808C34.096 11.808 35.128 12.064 36.024 12.576C36.92 13.088 37.616 13.792 38.112 14.688C38.624 15.568 38.88 16.552 38.88 17.64C38.88 17.816 38.872 18 38.856 18.192C38.856 18.384 38.848 18.584 38.832 18.792H29.784C29.848 19.72 30.168 20.448 30.744 20.976C31.336 21.504 32.048 21.768 32.88 21.768C33.504 21.768 34.024 21.632 34.44 21.36C34.872 21.072 35.192 20.704 35.4 20.256H38.52C38.296 21.008 37.92 21.696 37.392 22.32C36.88 22.928 36.24 23.408 35.472 23.76C34.72 24.112 33.864 24.288 32.904 24.288ZM32.928 14.304C32.176 14.304 31.512 14.52 30.936 14.952C30.36 15.368 29.992 16.008 29.832 16.872H35.76C35.712 16.088 35.424 15.464 34.896 15C34.368 14.536 33.712 14.304 32.928 14.304ZM46.2158 24.288C45.0958 24.288 44.0958 24.016 43.2158 23.472C42.3358 22.928 41.6398 22.184 41.1278 21.24C40.6158 20.296 40.3598 19.224 40.3598 18.024C40.3598 16.824 40.6158 15.76 41.1278 14.832C41.6398 13.888 42.3358 13.152 43.2158 12.624C44.0958 12.08 45.0958 11.808 46.2158 11.808C47.1118 11.808 47.8958 11.976 48.5678 12.312C49.2398 12.648 49.7838 13.12 50.1998 13.728V6.72H53.2718V24H50.5358L50.1998 22.296C49.8158 22.824 49.3038 23.288 48.6638 23.688C48.0398 24.088 47.2238 24.288 46.2158 24.288ZM46.8638 21.6C47.8558 21.6 48.6638 21.272 49.2878 20.616C49.9278 19.944 50.2478 19.088 50.2478 18.048C50.2478 17.008 49.9278 16.16 49.2878 15.504C48.6638 14.832 47.8558 14.496 46.8638 14.496C45.8878 14.496 45.0798 14.824 44.4398 15.48C43.7998 16.136 43.4798 16.984 43.4798 18.024C43.4798 19.064 43.7998 19.92 44.4398 20.592C45.0798 21.264 45.8878 21.6 46.8638 21.6ZM61.392 24.288C60.24 24.288 59.2 24.024 58.272 23.496C57.36 22.968 56.632 22.24 56.088 21.312C55.56 20.368 55.296 19.28 55.296 18.048C55.296 16.816 55.568 15.736 56.112 14.808C56.656 13.864 57.384 13.128 58.296 12.6C59.224 12.072 60.264 11.808 61.416 11.808C62.552 11.808 63.576 12.072 64.488 12.6C65.416 13.128 66.144 13.864 66.672 14.808C67.216 15.736 67.488 16.816 67.488 18.048C67.488 19.28 67.216 20.368 66.672 21.312C66.144 22.24 65.416 22.968 64.488 23.496C63.56 24.024 62.528 24.288 61.392 24.288ZM61.392 21.624C62.192 21.624 62.888 21.328 63.48 20.736C64.072 20.128 64.368 19.232 64.368 18.048C64.368 16.864 64.072 15.976 63.48 15.384C62.888 14.776 62.2 14.472 61.416 14.472C60.6 14.472 59.896 14.776 59.304 15.384C58.728 15.976 58.44 16.864 58.44 18.048C58.44 19.232 58.728 20.128 59.304 20.736C59.896 21.328 60.592 21.624 61.392 21.624ZM75.2267 24.288C74.0747 24.288 73.0347 24.024 72.1067 23.496C71.1947 22.968 70.4667 22.24 69.9227 21.312C69.3947 20.368 69.1307 19.28 69.1307 18.048C69.1307 16.816 69.4027 15.736 69.9467 14.808C70.4907 13.864 71.2187 13.128 72.1307 12.6C73.0587 12.072 74.0987 11.808 75.2507 11.808C76.3867 11.808 77.4107 12.072 78.3227 12.6C79.2507 13.128 79.9787 13.864 80.5067 14.808C81.0507 15.736 81.3227 16.816 81.3227 18.048C81.3227 19.28 81.0507 20.368 80.5067 21.312C79.9787 22.24 79.2507 22.968 78.3227 23.496C77.3947 24.024 76.3627 24.288 75.2267 24.288ZM75.2267 21.624C76.0267 21.624 76.7227 21.328 77.3147 20.736C77.9067 20.128 78.2027 19.232 78.2027 18.048C78.2027 16.864 77.9067 15.976 77.3147 15.384C76.7227 14.776 76.0347 14.472 75.2507 14.472C74.4347 14.472 73.7307 14.776 73.1387 15.384C72.5627 15.976 72.2747 16.864 72.2747 18.048C72.2747 19.232 72.5627 20.128 73.1387 20.736C73.7307 21.328 74.4267 21.624 75.2267 21.624Z" fill="#12141D"/>
</svg>
