<svg width="24" height="25" viewBox="0 0 24 25" fill="none" xmlns="http://www.w3.org/2000/svg">
<path d="M12 1.5C7.0374 1.5 3 5.42664 3 10.2531C3 15.8148 6.7107 19.1703 9.17175 21.391C9.95475 22.1311 10.9816 22.5 12.0063 22.5C13.0287 22.5 14.0489 22.1324 14.8206 21.3984C17.2812 19.1778 21 15.8205 21 10.2531C21 5.42664 16.9626 1.5 12 1.5ZM12 13.7543C10.015 13.7543 8.4 12.1836 8.4 10.2531C8.4 8.3226 10.015 6.75186 12 6.75186C13.985 6.75186 15.6 8.3226 15.6 10.2531C15.6 12.1836 13.985 13.7543 12 13.7543Z" fill="#2162F0"/>
</svg>
