<svg width="83" height="39" viewBox="0 0 83 39" fill="none" xmlns="http://www.w3.org/2000/svg">
<path d="M17 37.1829C17 37.1829 30.4355 34.2102 39.1202 33.8457C48.4056 33.456 63 37.183 63 37.183" stroke="white" stroke-width="2"/>
<path d="M9.24 25.1051C7.544 25.1051 6.088 24.7451 4.872 24.0251C3.656 23.2891 2.72 22.2731 2.064 20.9771C1.408 19.6651 1.08 18.1531 1.08 16.4411C1.08 14.7291 1.408 13.2171 2.064 11.9051C2.72 10.5931 3.656 9.56914 4.872 8.83314C6.088 8.09714 7.544 7.72914 9.24 7.72914C11.256 7.72914 12.904 8.23314 14.184 9.24114C15.48 10.2331 16.288 11.6331 16.608 13.4411H13.224C13.016 12.5291 12.568 11.8171 11.88 11.3051C11.208 10.7771 10.312 10.5131 9.192 10.5131C7.64 10.5131 6.424 11.0411 5.544 12.0971C4.664 13.1531 4.224 14.6011 4.224 16.4411C4.224 18.2811 4.664 19.7291 5.544 20.7851C6.424 21.8251 7.64 22.3451 9.192 22.3451C10.312 22.3451 11.208 22.1051 11.88 21.6251C12.568 21.1291 13.016 20.4491 13.224 19.5851H16.608C16.288 21.3131 15.48 22.6651 14.184 23.6411C12.904 24.6171 11.256 25.1051 9.24 25.1051ZM18.5353 24.8171V12.9131H21.2713L21.5593 15.1451C21.9913 14.3771 22.5753 13.7691 23.3113 13.3211C24.0633 12.8571 24.9433 12.6251 25.9513 12.6251V15.8651H25.0873C24.4153 15.8651 23.8153 15.9691 23.2873 16.1771C22.7593 16.3851 22.3433 16.7451 22.0393 17.2571C21.7513 17.7691 21.6073 18.4811 21.6073 19.3931V24.8171H18.5353ZM32.904 25.1051C31.704 25.1051 30.64 24.8491 29.712 24.3371C28.784 23.8251 28.056 23.1051 27.528 22.1771C27 21.2491 26.736 20.1771 26.736 18.9611C26.736 17.7291 26.992 16.6331 27.504 15.6731C28.032 14.7131 28.752 13.9691 29.664 13.4411C30.592 12.8971 31.68 12.6251 32.928 12.6251C34.096 12.6251 35.128 12.8811 36.024 13.3931C36.92 13.9051 37.616 14.6091 38.112 15.5051C38.624 16.3851 38.88 17.3691 38.88 18.4571C38.88 18.6331 38.872 18.8171 38.856 19.0091C38.856 19.2011 38.848 19.4011 38.832 19.6091H29.784C29.848 20.5371 30.168 21.2651 30.744 21.7931C31.336 22.3211 32.048 22.5851 32.88 22.5851C33.504 22.5851 34.024 22.4491 34.44 22.1771C34.872 21.8891 35.192 21.5211 35.4 21.0731H38.52C38.296 21.8251 37.92 22.5131 37.392 23.1371C36.88 23.7451 36.24 24.2251 35.472 24.5771C34.72 24.9291 33.864 25.1051 32.904 25.1051ZM32.928 15.1211C32.176 15.1211 31.512 15.3371 30.936 15.7691C30.36 16.1851 29.992 16.8251 29.832 17.6891H35.76C35.712 16.9051 35.424 16.2811 34.896 15.8171C34.368 15.3531 33.712 15.1211 32.928 15.1211ZM46.2158 25.1051C45.0958 25.1051 44.0958 24.8331 43.2158 24.2891C42.3358 23.7451 41.6398 23.0011 41.1278 22.0571C40.6158 21.1131 40.3598 20.0411 40.3598 18.8411C40.3598 17.6411 40.6158 16.5771 41.1278 15.6491C41.6398 14.7051 42.3358 13.9691 43.2158 13.4411C44.0958 12.8971 45.0958 12.6251 46.2158 12.6251C47.1118 12.6251 47.8958 12.7931 48.5678 13.1291C49.2398 13.4651 49.7838 13.9371 50.1998 14.5451V7.53714H53.2718V24.8171H50.5358L50.1998 23.1131C49.8158 23.6411 49.3038 24.1051 48.6638 24.5051C48.0398 24.9051 47.2238 25.1051 46.2158 25.1051ZM46.8638 22.4171C47.8558 22.4171 48.6638 22.0891 49.2878 21.4331C49.9278 20.7611 50.2478 19.9051 50.2478 18.8651C50.2478 17.8251 49.9278 16.9771 49.2878 16.3211C48.6638 15.6491 47.8558 15.3131 46.8638 15.3131C45.8878 15.3131 45.0798 15.6411 44.4398 16.2971C43.7998 16.9531 43.4798 17.8011 43.4798 18.8411C43.4798 19.8811 43.7998 20.7371 44.4398 21.4091C45.0798 22.0811 45.8878 22.4171 46.8638 22.4171ZM61.392 25.1051C60.24 25.1051 59.2 24.8411 58.272 24.3131C57.36 23.7851 56.632 23.0571 56.088 22.1291C55.56 21.1851 55.296 20.0971 55.296 18.8651C55.296 17.6331 55.568 16.5531 56.112 15.6251C56.656 14.6811 57.384 13.9451 58.296 13.4171C59.224 12.8891 60.264 12.6251 61.416 12.6251C62.552 12.6251 63.576 12.8891 64.488 13.4171C65.416 13.9451 66.144 14.6811 66.672 15.6251C67.216 16.5531 67.488 17.6331 67.488 18.8651C67.488 20.0971 67.216 21.1851 66.672 22.1291C66.144 23.0571 65.416 23.7851 64.488 24.3131C63.56 24.8411 62.528 25.1051 61.392 25.1051ZM61.392 22.4411C62.192 22.4411 62.888 22.1451 63.48 21.5531C64.072 20.9451 64.368 20.0491 64.368 18.8651C64.368 17.6811 64.072 16.7931 63.48 16.2011C62.888 15.5931 62.2 15.2891 61.416 15.2891C60.6 15.2891 59.896 15.5931 59.304 16.2011C58.728 16.7931 58.44 17.6811 58.44 18.8651C58.44 20.0491 58.728 20.9451 59.304 21.5531C59.896 22.1451 60.592 22.4411 61.392 22.4411ZM75.2267 25.1051C74.0747 25.1051 73.0347 24.8411 72.1067 24.3131C71.1947 23.7851 70.4667 23.0571 69.9227 22.1291C69.3947 21.1851 69.1307 20.0971 69.1307 18.8651C69.1307 17.6331 69.4027 16.5531 69.9467 15.6251C70.4907 14.6811 71.2187 13.9451 72.1307 13.4171C73.0587 12.8891 74.0987 12.6251 75.2507 12.6251C76.3867 12.6251 77.4107 12.8891 78.3227 13.4171C79.2507 13.9451 79.9787 14.6811 80.5067 15.6251C81.0507 16.5531 81.3227 17.6331 81.3227 18.8651C81.3227 20.0971 81.0507 21.1851 80.5067 22.1291C79.9787 23.0571 79.2507 23.7851 78.3227 24.3131C77.3947 24.8411 76.3627 25.1051 75.2267 25.1051ZM75.2267 22.4411C76.0267 22.4411 76.7227 22.1451 77.3147 21.5531C77.9067 20.9451 78.2027 20.0491 78.2027 18.8651C78.2027 17.6811 77.9067 16.7931 77.3147 16.2011C76.7227 15.5931 76.0347 15.2891 75.2507 15.2891C74.4347 15.2891 73.7307 15.5931 73.1387 16.2011C72.5627 16.7931 72.2747 17.6811 72.2747 18.8651C72.2747 20.0491 72.5627 20.9451 73.1387 21.5531C73.7307 22.1451 74.4267 22.4411 75.2267 22.4411Z" fill="white"/>
</svg>
