<svg width="24" height="25" viewBox="0 0 24 25" fill="none" xmlns="http://www.w3.org/2000/svg">
<path d="M16.9395 3.5C18.2805 3.5 19.5705 4.03 20.5195 4.981C21.4695 5.93 22.0005 7.21 22.0005 8.55V16.45C22.0005 19.24 19.7305 21.5 16.9395 21.5H7.06049C4.26949 21.5 2.00049 19.24 2.00049 16.45V8.55C2.00049 5.76 4.25949 3.5 7.06049 3.5H16.9395ZM18.0705 8.7C17.8605 8.689 17.6605 8.76 17.5095 8.9L13.0005 12.5C12.4205 12.981 11.5895 12.981 11.0005 12.5L6.50049 8.9C6.18949 8.67 5.75949 8.7 5.50049 8.97C5.23049 9.24 5.20049 9.67 5.42949 9.97L5.56049 10.1L10.1105 13.65C10.6705 14.09 11.3495 14.33 12.0605 14.33C12.7695 14.33 13.4605 14.09 14.0195 13.65L18.5305 10.04L18.6105 9.96C18.8495 9.67 18.8495 9.25 18.5995 8.96C18.4605 8.811 18.2695 8.72 18.0705 8.7Z" fill="#2162F0"/>
</svg>
